<svg width="22" height="19" viewBox="0 0 22 19" fill="none" xmlns="http://www.w3.org/2000/svg">
<mask id="path-1-inside-1" fill="white">
<path d="M3.5 1H11.5C12.6046 1 13.5 1.89543 13.5 3V5.5C13.5 5.77614 13.7239 6 14 6C14.2761 6 14.5 5.77614 14.5 5.5V3C14.5 1.34315 13.1569 0 11.5 0H3.5C1.84315 0 0.5 1.34315 0.5 3V16C0.5 17.6569 1.84315 19 3.5 19H11.5C13.1569 19 14.5 17.6569 14.5 16V13.5C14.5 13.2239 14.2761 13 14 13C13.7239 13 13.5 13.2239 13.5 13.5V16C13.5 17.1046 12.6046 18 11.5 18H3.5C2.39543 18 1.5 17.1046 1.5 16V3C1.5 1.89543 2.39543 1 3.5 1Z"/>
</mask>
<path d="M3.5 1H11.5C12.6046 1 13.5 1.89543 13.5 3V5.5C13.5 5.77614 13.7239 6 14 6C14.2761 6 14.5 5.77614 14.5 5.5V3C14.5 1.34315 13.1569 0 11.5 0H3.5C1.84315 0 0.5 1.34315 0.5 3V16C0.5 17.6569 1.84315 19 3.5 19H11.5C13.1569 19 14.5 17.6569 14.5 16V13.5C14.5 13.2239 14.2761 13 14 13C13.7239 13 13.5 13.2239 13.5 13.5V16C13.5 17.1046 12.6046 18 11.5 18H3.5C2.39543 18 1.5 17.1046 1.5 16V3C1.5 1.89543 2.39543 1 3.5 1Z" fill="#657686"/>
<path d="M11.5 0H3.5V2H11.5V0ZM14.5 3C14.5 1.34315 13.1569 0 11.5 0V2C12.0523 2 12.5 2.44772 12.5 3H14.5ZM14.5 5.5V3H12.5V5.5H14.5ZM15.5 5.5V3H13.5V5.5H15.5ZM15.5 3C15.5 0.790861 13.7091 -1 11.5 -1V1C12.6046 1 13.5 1.89543 13.5 3H15.5ZM11.5 -1H3.5V1H11.5V-1ZM3.5 -1C1.29086 -1 -0.5 0.790861 -0.5 3H1.5C1.5 1.89543 2.39543 1 3.5 1V-1ZM-0.5 3V16H1.5V3H-0.5ZM-0.5 16C-0.5 18.2091 1.29086 20 3.5 20V18C2.39543 18 1.5 17.1046 1.5 16H-0.5ZM3.5 20H11.5V18H3.5V20ZM11.5 20C13.7091 20 15.5 18.2091 15.5 16H13.5C13.5 17.1046 12.6046 18 11.5 18V20ZM15.5 16V13.5H13.5V16H15.5ZM14.5 16V13.5H12.5V16H14.5ZM11.5 19C13.1569 19 14.5 17.6569 14.5 16H12.5C12.5 16.5523 12.0523 17 11.5 17V19ZM3.5 19H11.5V17H3.5V19ZM0.5 16C0.5 17.6569 1.84315 19 3.5 19V17C2.94771 17 2.5 16.5523 2.5 16H0.5ZM0.5 3V16H2.5V3H0.5ZM3.5 0C1.84315 0 0.5 1.34315 0.5 3H2.5C2.5 2.44772 2.94772 2 3.5 2V0ZM14 12C13.1716 12 12.5 12.6716 12.5 13.5H14.5C14.5 13.7761 14.2761 14 14 14V12ZM14 7C14.8284 7 15.5 6.32843 15.5 5.5H13.5C13.5 5.22386 13.7239 5 14 5V7ZM15.5 13.5C15.5 12.6716 14.8284 12 14 12V14C13.7239 14 13.5 13.7761 13.5 13.5H15.5ZM12.5 5.5C12.5 6.32843 13.1716 7 14 7V5C14.2761 5 14.5 5.22386 14.5 5.5H12.5Z" fill="#657686" mask="url(#path-1-inside-1)"/>
<path d="M8 9.5H21M21 9.5L18 6.5M21 9.5L18 12.5" stroke="#657686" stroke-linecap="round"/>
</svg>
