<svg width="17" height="21" viewBox="0 0 17 21" fill="none" xmlns="http://www.w3.org/2000/svg">
<path d="M11.7119 5.20996C10.2266 5.20996 9.02051 6.11133 8.24609 6.11133C7.4209 6.11133 6.3418 5.26074 5.04688 5.26074C2.59668 5.26074 0.108398 7.29199 0.108398 11.1133C0.108398 13.5 1.02246 16.0137 2.16504 17.6387C3.14258 19.0098 3.99316 20.1396 5.22461 20.1396C6.44336 20.1396 6.97656 19.3271 8.4873 19.3271C10.0234 19.3271 10.3662 20.1143 11.7119 20.1143C13.0449 20.1143 13.9336 18.8955 14.7715 17.6895C15.7109 16.3057 16.1045 14.96 16.1172 14.8965C16.041 14.8711 13.4893 13.8301 13.4893 10.9102C13.4893 8.38379 15.4951 7.25391 15.6094 7.16504C14.2891 5.26074 12.2705 5.20996 11.7119 5.20996ZM11.0137 3.59766C11.623 2.86133 12.0547 1.8584 12.0547 0.842773C12.0547 0.703125 12.042 0.563477 12.0166 0.449219C11.0264 0.487305 9.83301 1.10938 9.12207 1.94727C8.56348 2.58203 8.04297 3.59766 8.04297 4.61328C8.04297 4.76562 8.06836 4.91797 8.08105 4.96875C8.14453 4.98145 8.24609 4.99414 8.34766 4.99414C9.23633 4.99414 10.3535 4.39746 11.0137 3.59766Z" fill="white"/>
</svg>
