<svg width="11" height="10" viewBox="0 0 11 10" fill="none" xmlns="http://www.w3.org/2000/svg">
<path d="M7.65927 5.6138C8.45862 5.6138 9.15227 6.69286 9.65516 7.19534C9.88243 7.41935 10.0017 7.68593 10.0017 7.96371C10.0017 8.99786 8.43085 10.0384 7.52651 9.99552C5.39354 9.85932 3.32929 8.22042 2.02035 6.66443C1.02841 5.47721 -0.12483 3.78843 0.0109486 2.14382C0.0814353 1.34999 1.1336 0 2.03385 0C2.30837 0 2.56939 0.114247 2.78765 0.329301C3.21847 0.725206 3.61955 1.15749 4.03425 1.57034C4.88084 2.41316 3.96275 3.23933 3.32319 3.82168C3.8741 5.03548 5.02836 6.04779 6.17866 6.66443C6.58268 6.26348 7.03085 5.6138 7.65927 5.6138Z" fill="#37C597"/>
</svg>
