<svg width="20" height="19" viewBox="0 0 20 19" fill="none" xmlns="http://www.w3.org/2000/svg">
<path d="M9.93114 10.2377C9.95081 10.2377 9.97048 10.2377 9.99409 10.2377C10.002 10.2377 10.0098 10.2377 10.0177 10.2377C10.0295 10.2377 10.0452 10.2377 10.057 10.2377C11.2099 10.2181 12.1424 9.8128 12.8309 9.03769C14.3457 7.33009 14.0939 4.40278 14.0664 4.12342C13.968 2.0263 12.9765 1.02299 12.1581 0.554773C11.5482 0.204597 10.8361 0.0157382 10.0413 0H10.0138C10.0098 0 10.002 0 9.99803 0H9.97442C9.53768 0 8.67995 0.0708221 7.85762 0.539035C7.03137 1.00725 6.02412 2.01056 5.92575 4.12342C5.89821 4.40278 5.6464 7.33009 7.16121 9.03769C7.84582 9.8128 8.77831 10.2181 9.93114 10.2377ZM6.97628 4.22179C6.97628 4.20998 6.98022 4.19818 6.98022 4.19031C7.11006 1.36923 9.11275 1.06627 9.97048 1.06627H9.98622C9.99409 1.06627 10.0059 1.06627 10.0177 1.06627C11.08 1.08987 12.886 1.52268 13.008 4.19031C13.008 4.20211 13.008 4.21392 13.0119 4.22179C13.0158 4.24933 13.2913 6.92483 12.0401 8.3334C11.5443 8.89211 10.8833 9.16753 10.0138 9.1754C10.0059 9.1754 10.002 9.1754 9.99409 9.1754C9.98622 9.1754 9.98229 9.1754 9.97442 9.1754C9.10881 9.16753 8.44387 8.89211 7.95205 8.3334C6.7048 6.9327 6.97235 4.24539 6.97628 4.22179Z" fill="black"/>
<path d="M18.0798 15.0931C18.0798 15.0891 18.0798 15.0852 18.0798 15.0813C18.0798 15.0498 18.0758 15.0183 18.0758 14.9829C18.0522 14.2038 18.0011 12.3821 16.2935 11.7998C16.2817 11.7959 16.2659 11.792 16.2541 11.788C14.4796 11.3355 13.0042 10.3126 12.9884 10.3008C12.7484 10.1316 12.4179 10.1906 12.2487 10.4306C12.0795 10.6706 12.1386 11.0011 12.3786 11.1703C12.4455 11.2175 14.0114 12.3074 15.9708 12.811C16.8876 13.1376 16.9899 14.1173 17.0174 15.0144C17.0174 15.0498 17.0174 15.0813 17.0214 15.1127C17.0253 15.4668 17.0017 16.0137 16.9387 16.3285C16.3013 16.6905 13.8029 17.9417 10.0021 17.9417C6.21705 17.9417 3.70286 16.6866 3.06153 16.3246C2.99857 16.0098 2.97103 15.4629 2.9789 15.1088C2.9789 15.0773 2.98284 15.0458 2.98284 15.0104C3.01038 14.1134 3.11268 13.1336 4.02943 12.8071C5.98884 12.3035 7.5548 11.2096 7.62169 11.1664C7.86169 10.9972 7.92071 10.6667 7.75153 10.4267C7.58234 10.1867 7.25184 10.1276 7.01183 10.2968C6.99609 10.3086 5.5285 11.3316 3.74614 11.7841C3.7304 11.788 3.7186 11.792 3.7068 11.7959C1.9992 12.3821 1.94805 14.2038 1.92444 14.979C1.92444 15.0144 1.92444 15.0458 1.9205 15.0773C1.9205 15.0813 1.9205 15.0852 1.9205 15.0891C1.91657 15.2937 1.91264 16.3443 2.12117 16.8715C2.16051 16.9738 2.23133 17.0603 2.32576 17.1194C2.4438 17.1981 5.27275 19.0001 10.006 19.0001C14.7393 19.0001 17.5683 17.1941 17.6863 17.1194C17.7768 17.0603 17.8515 16.9738 17.8909 16.8715C18.0876 16.3482 18.0837 15.2977 18.0798 15.0931Z" fill="black"/>
</svg>
