<svg width="23" height="22" viewBox="0 0 23 22" fill="none" xmlns="http://www.w3.org/2000/svg">
<path d="M5.37565 13.2951L4.60987 16.1539L1.81093 16.2131C0.97446 14.6616 0.5 12.8865 0.5 11.0002C0.5 9.17613 0.943608 7.45601 1.72993 5.94141H1.73054L4.22237 6.39825L5.31395 8.87513C5.08549 9.54119 4.96096 10.2562 4.96096 11.0002C4.96105 11.8077 5.10731 12.5813 5.37565 13.2951Z" fill="#FBBB00"/>
<path d="M22.3079 8.94531C22.4342 9.61073 22.5001 10.2979 22.5001 11.0002C22.5001 11.7878 22.4173 12.556 22.2596 13.297C21.7241 15.8185 20.3249 18.0203 18.3866 19.5784L18.386 19.5778L15.2474 19.4177L14.8032 16.6447C16.0893 15.8904 17.0945 14.71 17.6239 13.297H11.7419V8.94531H17.7097H22.3079Z" fill="#518EF8"/>
<path d="M18.3858 19.5776L18.3864 19.5782C16.5013 21.0934 14.1067 22 11.5 22C7.3109 22 3.66883 19.6586 1.81091 16.2129L5.37564 13.2949C6.30457 15.7741 8.69617 17.539 11.5 17.539C12.7051 17.539 13.8341 17.2132 14.803 16.6445L18.3858 19.5776Z" fill="#28B446"/>
<path d="M18.5213 2.5324L14.9578 5.4498C13.9551 4.82306 12.7698 4.46101 11.5 4.46101C8.63277 4.46101 6.19644 6.30681 5.31404 8.87492L1.73058 5.94119H1.72998C3.5607 2.41153 7.2487 0 11.5 0C14.169 0 16.6162 0.950724 18.5213 2.5324Z" fill="#F14336"/>
</svg>
