<svg width="12" height="8" viewBox="0 0 12 8" fill="none" xmlns="http://www.w3.org/2000/svg">
<path d="M2 0C0.895431 0 0 0.895431 0 2V6C0 7.10457 0.895431 8 2 8H6C7.10457 8 8 7.10457 8 6V2C8 0.895431 7.10457 0 6 0H2Z" fill="#37C597"/>
<path d="M9.29289 2.70711C9.10536 2.89464 9 3.149 9 3.41421V4.58579C9 4.851 9.10536 5.10536 9.29289 5.29289L10.7929 6.79289C10.9255 6.9255 11.1054 7 11.2929 7C11.6834 7 12 6.68342 12 6.29289V1.70711C12 1.31658 11.6834 1 11.2929 1C11.1054 1 10.9255 1.0745 10.7929 1.20711L9.29289 2.70711Z" fill="#37C597"/>
</svg>
