<svg width="169" height="155" viewBox="0 0 169 155" fill="none" xmlns="http://www.w3.org/2000/svg">
<circle cx="84.2859" cy="37.0408" r="36.5408" stroke="#E9ECF1"/>
<path d="M93.2406 39.1077C95.9323 39.1077 98.2681 42.7413 99.9615 44.4333C100.727 45.1876 101.128 46.0853 101.128 47.0207C101.128 50.503 95.8388 54.0069 92.7936 53.8625C85.6111 53.4039 78.6601 47.8851 74.2524 42.6455C70.9122 38.6478 67.0289 32.9611 67.4861 27.4231C67.7234 24.75 71.2665 20.2041 74.2979 20.2041C75.2223 20.2041 76.1012 20.5888 76.8362 21.313C78.2869 22.6461 79.6375 24.1018 81.0339 25.492C83.8847 28.33 80.7932 31.112 78.6396 33.073C80.4947 37.1603 84.3814 40.5691 88.2549 42.6455C89.6154 41.2954 91.1245 39.1077 93.2406 39.1077Z" fill="#E9ECF1"/>
<circle cx="37.0408" cy="117.959" r="36.5408" stroke="#E9ECF1"/>
<path d="M23.5714 104.49C19.8519 104.49 16.8367 107.505 16.8367 111.224V124.694C16.8367 128.413 19.8519 131.429 23.5714 131.429H37.0408C40.7602 131.429 43.7754 128.413 43.7754 124.694V111.224C43.7754 107.505 40.7602 104.49 37.0408 104.49H23.5714Z" fill="#E9ECF1"/>
<path d="M48.1291 113.606C47.4976 114.237 47.1428 115.094 47.1428 115.987V119.932C47.1428 120.825 47.4976 121.681 48.1291 122.313L53.1801 127.364C53.6266 127.81 54.2323 128.061 54.8638 128.061C56.1788 128.061 57.2448 126.995 57.2448 125.68V110.238C57.2448 108.923 56.1788 107.857 54.8638 107.857C54.2323 107.857 53.6266 108.108 53.1801 108.554L48.1291 113.606Z" fill="#E9ECF1"/>
<circle cx="131.531" cy="117.959" r="36.5408" stroke="#E9ECF1"/>
<path d="M131.531 131.429C142.689 131.429 151.735 124.644 151.735 116.276C151.735 107.907 142.689 101.123 131.531 101.123C120.373 101.123 111.327 107.907 111.327 116.276C111.327 122.141 115.77 127.228 122.27 129.747L119.31 135.666C118.737 136.813 119.571 138.163 120.854 138.163C121.227 138.163 121.59 138.042 121.889 137.818L130.438 131.407C130.8 131.421 131.164 131.429 131.531 131.429Z" fill="#E9ECF1"/>
</svg>
