<svg width="239" height="155" viewBox="0 0 239 155" fill="none" xmlns="http://www.w3.org/2000/svg">
<rect x="167.426" y="35.5647" width="71.2997" height="104.087" rx="1.18139" transform="rotate(8 167.426 35.5647)" fill="white" stroke="#E9ECF1"/>
<rect x="157" y="131" width="5.88486" height="4.20347" rx="0.840694" transform="rotate(8 157 131)" fill="#E9ECF1"/>
<rect x="165" y="132" width="5.88486" height="4.20347" rx="0.840694" transform="rotate(8 165 132)" fill="#E9ECF1"/>
<rect x="174" y="134" width="29.4243" height="4.20347" rx="0.840694" transform="rotate(8 174 134)" fill="#E9ECF1"/>
<line x1="157.059" y1="127.584" x2="221.994" y2="136.71" stroke="#E9ECF1" stroke-width="0.840694"/>
<circle cx="219.789" cy="142.374" r="2.10174" transform="rotate(8 219.789 142.374)" fill="#E9ECF1"/>
<path d="M228.131 49.5207C228.714 48.5434 229.814 47.9578 230.974 48.1209C232.538 48.3407 233.475 49.8409 233.392 51.46C233.392 51.46 233.413 51.8678 233.144 52.5589C232.778 53.5001 232.118 54.2892 231.3 54.8472L226.975 57.7461L223.682 53.7763C223.048 53.0145 222.632 52.0739 222.539 51.0683C222.472 50.3299 222.604 49.9437 222.604 49.9437C222.97 48.3643 224.285 47.1806 225.848 47.4003C227.009 47.5635 227.84 48.4206 228.131 49.5207Z" fill="#C3C9D3"/>
<rect x="160" y="111" width="21.0174" height="5.04416" rx="0.840694" transform="rotate(8 160 111)" fill="#C3C9D3"/>
<rect x="158" y="120" width="21.0174" height="3.36278" rx="0.840694" transform="rotate(8 158 120)" fill="#E9ECF1"/>
<rect x="183" y="124" width="9.24763" height="3.36278" rx="0.840694" transform="rotate(8 183 124)" fill="#E9ECF1"/>
<rect x="195" y="126" width="21.0174" height="3.36278" rx="0.840694" transform="rotate(8 195 126)" fill="#E9ECF1"/>
<rect x="184" y="115" width="15.1325" height="5.04416" rx="0.840694" transform="rotate(8 184 115)" fill="#C3C9D3"/>
<g clip-path="url(#clip0)">
<path d="M188.204 90.8361L180.181 93.8537C179.71 94.0306 179.276 94.2685 178.865 94.5366C182.695 98.8106 187.993 101.809 194.121 102.67C200.204 103.525 206.082 102.131 210.923 99.1266C210.571 98.733 210.18 98.3686 209.733 98.0617L202.314 92.9507C201.355 92.2903 200.852 91.1451 201.014 89.9925L201.454 86.8616C201.714 86.6377 202.016 86.3457 202.345 85.9969C203.649 84.6136 204.709 83.0394 205.528 81.3467C206.596 81.1748 207.483 80.3355 207.641 79.2121L208.111 75.8701C208.214 75.135 207.979 74.4321 207.536 73.9008L208.215 69.0697C208.215 69.0697 210.264 61.6911 200.082 60.2602C189.901 58.8293 189.837 66.4868 189.837 66.4868L189.158 71.3179C188.584 71.7063 188.166 72.3174 188.062 73.0525L187.593 76.3945C187.469 77.2748 187.823 78.1145 188.453 78.6595C188.777 82.412 190.596 85.3356 190.596 85.3356L190.166 88.3892C190.009 89.5011 189.256 90.44 188.204 90.8361Z" fill="white"/>
<path d="M201.402 52.5738C187.644 50.3999 174.728 59.7909 172.554 73.5489C171.321 81.3498 173.818 88.8675 178.711 94.3211C179.118 94.0555 179.548 93.8199 180.014 93.6451L188.037 90.6275C189.09 90.2314 189.842 89.2925 189.999 88.1786L190.428 85.125C190.428 85.125 188.608 82.2012 188.285 78.4489C187.656 77.904 187.301 77.0651 187.425 76.1839L187.895 72.8419C187.998 72.1068 188.418 71.4958 188.99 71.1073L189.669 66.2762C189.669 66.2762 189.733 58.6187 199.915 60.0496C210.096 61.4805 208.047 68.8591 208.047 68.8591L207.368 73.6902C207.813 74.2216 208.046 74.9244 207.943 75.6595L207.473 79.0015C207.315 80.1249 206.429 80.9642 205.361 81.1361C204.541 82.8288 203.481 84.403 202.178 85.7863C201.849 86.1351 201.546 86.4271 201.286 86.651L200.846 89.7819C200.684 90.9345 201.187 92.0806 202.146 92.7401L209.565 97.8511C210.01 98.1578 210.4 98.5211 210.752 98.9136C216.764 95.1819 221.184 88.9601 222.375 81.4216C224.551 67.6638 215.161 54.7477 201.402 52.5738Z" fill="#DBE9FA"/>
</g>
<rect x="0.564721" y="45.4255" width="71.2997" height="104.087" rx="1.18139" transform="rotate(-8 0.564721 45.4255)" fill="white" stroke="#E9ECF1"/>
<rect x="17" y="140" width="5.88486" height="4.20347" rx="0.840694" transform="rotate(-8 17 140)" fill="#E9ECF1"/>
<rect x="25" y="139" width="5.88486" height="4.20347" rx="0.840694" transform="rotate(-8 25 139)" fill="#E9ECF1"/>
<rect x="33" y="138" width="29.4243" height="4.20347" rx="0.840694" transform="rotate(-8 33 138)" fill="#E9ECF1"/>
<line x1="15.9415" y1="136.584" x2="80.8775" y2="127.458" stroke="#E9ECF1" stroke-width="0.840694"/>
<circle cx="80.3738" cy="133.789" r="2.10174" transform="rotate(-8 80.3738 133.789)" fill="#E9ECF1"/>
<path d="M62.627 42.0088C62.9178 40.9087 63.8137 40.0426 64.9743 39.8795C66.5378 39.6598 67.8524 40.8435 68.2187 42.4229C68.2187 42.4229 68.3509 42.8091 68.2832 43.5475C68.191 44.5531 67.7742 45.4935 67.1412 46.2555L63.783 50.2342L59.5229 47.326C58.7044 46.7682 58.0445 45.9788 57.6787 45.0376C57.4101 44.3465 57.4307 43.9388 57.4307 43.9388C57.3475 42.3196 58.2849 40.8194 59.8484 40.5997C61.0092 40.4365 62.0442 41.0314 62.627 42.0088Z" fill="#C3C9D3"/>
<rect x="14" y="120" width="21.0174" height="5.04416" rx="0.840694" transform="rotate(-8 14 120)" fill="#C3C9D3"/>
<rect x="15" y="129" width="21.0174" height="3.36278" rx="0.840694" transform="rotate(-8 15 129)" fill="#E9ECF1"/>
<rect x="39" y="126" width="9.24763" height="3.36278" rx="0.840694" transform="rotate(-8 39 126)" fill="#E9ECF1"/>
<rect x="52" y="124" width="21.0174" height="3.36278" rx="0.840694" transform="rotate(-8 52 124)" fill="#E9ECF1"/>
<rect x="38" y="117" width="15.1325" height="5.04416" rx="0.840694" transform="rotate(-8 38 117)" fill="#C3C9D3"/>
<g clip-path="url(#clip1)">
<path d="M36.0921 92.4053L29.2113 97.5175C28.8075 97.8174 28.4557 98.1657 28.1349 98.5366C32.9945 101.589 38.9137 103.011 45.0417 102.15C51.1243 101.295 56.3912 98.3348 60.2159 94.1125C59.7688 93.8313 59.2927 93.5887 58.7784 93.4169L50.2378 90.5489C49.1343 90.1783 48.335 89.2161 48.173 88.0635L47.733 84.9326C47.9214 84.6457 48.1316 84.2817 48.3514 83.8558C49.2231 82.1667 49.8084 80.3612 50.1295 78.5083C51.1086 78.0488 51.7297 76.9975 51.5719 75.8741L51.1022 72.5321C50.9989 71.797 50.5795 71.186 50.0069 70.7975L49.3279 65.9664C49.3279 65.9664 49.2637 58.3089 39.0823 59.7398C28.9008 61.1707 30.9498 68.5493 30.9498 68.5493L31.6288 73.3804C31.1845 73.9118 30.9507 74.6145 31.054 75.3497L31.5237 78.6917C31.6474 79.5719 32.219 80.2816 32.9747 80.6319C34.3206 84.1497 36.8748 86.4586 36.8748 86.4586L37.3039 89.5122C37.4593 90.6245 36.9944 91.7345 36.0921 92.4053Z" fill="white"/>
<path d="M38.4028 52.4337C24.5786 54.1363 14.7512 66.7236 16.4538 80.5479C17.4189 88.3863 21.8919 94.9245 28.098 98.8183C28.4163 98.4506 28.7648 98.1056 29.1642 97.8092L36.045 92.697C36.9474 92.0262 37.4123 90.9162 37.2557 89.8022L36.8266 86.7486C36.8266 86.7486 34.2714 84.4398 32.9264 80.9219C32.1717 80.5714 31.5993 79.8628 31.4755 78.9816L31.0058 75.6396C30.9025 74.9045 31.1372 74.2017 31.5805 73.6703L30.9016 68.8393C30.9016 68.8393 28.8525 61.4607 39.034 60.0298C49.2155 58.5989 49.2797 66.2564 49.2797 66.2564L49.9586 71.0875C50.5322 71.4759 50.9506 72.0869 51.0539 72.8221L51.5236 76.1641C51.6815 77.2875 51.0604 78.3387 50.0812 78.7983C49.7602 80.6512 49.1749 82.4567 48.3032 84.1458C48.0834 84.5717 47.8731 84.9357 47.6847 85.2226L48.1247 88.3535C48.2867 89.5061 49.0862 90.4692 50.1896 90.8389L58.7301 93.7069C59.2425 93.879 59.7176 94.1207 60.1636 94.4011C64.9143 89.1568 67.448 81.9578 66.5151 74.3829C64.8144 60.5584 52.228 50.7309 38.4028 52.4337Z" fill="#DBE9FA"/>
</g>
<rect x="72.5" y="0.5" width="106" height="154" rx="1.98" fill="white" stroke="#E9ECF1"/>
<rect x="77" y="143" width="9" height="6" rx="1.24" fill="#E9ECF1"/>
<rect x="89" y="143" width="9" height="6" rx="1.24" fill="#E9ECF1"/>
<rect x="102" y="143" width="44" height="6" rx="1.24" fill="#E9ECF1"/>
<line x1="77" y1="137.5" x2="173.72" y2="137.5" stroke="#E9ECF1"/>
<circle cx="170.1" cy="146.1" r="3.1" fill="#E9ECF1"/>
<path d="M164.012 8.62858C164.662 7.08139 166.149 6.00032 167.877 6.00032C170.206 6.00032 171.883 7.9991 172.094 10.3812C172.094 10.3812 172.208 10.9725 171.958 12.0371C171.616 13.4869 170.815 14.775 169.734 15.758L164.012 20.88L158.386 15.7577C157.305 14.775 156.504 13.4866 156.162 12.0368C155.912 10.9722 156.026 10.3809 156.026 10.3809C156.237 7.99877 157.914 6 160.243 6C161.972 6 163.361 7.08139 164.012 8.62858Z" fill="#C3C9D3"/>
<rect x="77" y="114" width="31" height="6" rx="1.24" fill="#C3C9D3"/>
<rect x="77" y="126" width="31" height="5" rx="1.24" fill="#E9ECF1"/>
<rect x="113" y="126" width="13.64" height="4.96" rx="1.24" fill="#E9ECF1"/>
<rect x="132" y="126" width="31" height="4.96" rx="1.24" fill="#E9ECF1"/>
<rect x="113" y="114" width="22" height="6" rx="1.24" fill="#C3C9D3"/>
<g clip-path="url(#clip2)">
<path d="M113.881 77.098L102.781 83.1525C102.13 83.5076 101.545 83.9442 101 84.4201C107.471 89.8766 115.825 93.1684 124.953 93.1684C134.013 93.1684 142.313 89.9257 148.766 84.5436C148.171 84.0411 147.525 83.5891 146.809 83.2325L134.924 77.2903C133.388 76.5225 132.418 74.953 132.418 73.2362V68.5729C132.752 68.1925 133.134 67.704 133.542 67.127C135.162 64.8389 136.388 62.3219 137.237 59.6814C138.762 59.2111 139.885 57.8031 139.885 56.1298V51.1521C139.885 50.0571 139.397 49.0787 138.641 48.3936V41.1979C138.641 41.1979 140.119 30 124.954 30C109.789 30 111.267 41.1979 111.267 41.1979V48.3936C110.509 49.0787 110.023 50.0571 110.023 51.1521V56.1298C110.023 57.441 110.713 58.5949 111.744 59.2617C112.988 64.676 116.245 68.5729 116.245 68.5729V73.1211C116.244 74.7776 115.337 76.3035 113.881 77.098Z" fill="white"/>
<path d="M125.836 19.0055C105.294 18.6546 88.3565 35.0226 88.0055 55.564C87.8062 67.2111 92.9974 77.6791 101.263 84.6404C101.803 84.1687 102.383 83.7364 103.027 83.3854L114.127 77.3309C115.583 76.5364 116.49 75.0105 116.49 73.3512V68.803C116.49 68.803 113.231 64.9061 111.989 59.4918C110.959 58.825 110.268 57.6725 110.268 56.36V51.3822C110.268 50.2872 110.755 49.3088 111.512 48.6238V41.428C111.512 41.428 110.034 30.2301 125.199 30.2301C140.363 30.2301 138.885 41.428 138.885 41.428V48.6238C139.643 49.3088 140.129 50.2872 140.129 51.3822V56.36C140.129 58.0333 139.006 59.4412 137.482 59.9115C136.632 62.552 135.407 65.069 133.787 67.3571C133.378 67.9341 132.996 68.4226 132.662 68.803V73.4663C132.662 75.1832 133.632 76.754 135.168 77.5204L147.054 83.4626C147.767 83.8192 148.411 84.2698 149.005 84.7709C157.021 78.0862 162.199 68.0913 162.392 56.8358C162.745 36.2944 146.379 19.3565 125.836 19.0055Z" fill="#DBE9FA"/>
</g>
<defs>
<clipPath id="clip0">
<rect width="50.4416" height="50.4416" fill="white" transform="translate(176 49) rotate(8)"/>
</clipPath>
<clipPath id="clip1">
<rect width="50.4416" height="50.4416" fill="white" transform="translate(13 56) rotate(-8)"/>
</clipPath>
<clipPath id="clip2">
<rect width="74.4" height="74.4" fill="white" transform="translate(88 19)"/>
</clipPath>
</defs>
</svg>
